<svg width="130" height="169" viewBox="0 0 130 169" fill="none" xmlns="http://www.w3.org/2000/svg">
<path fill-rule="evenodd" clip-rule="evenodd" d="M30.698 44.188C31.6936 32.1458 37.1894 20.9173 46.0944 12.7315C54.9995 4.54569 66.663 0.00116569 78.7692 0H81.362C93.4682 0.00116569 105.132 4.54569 114.037 12.7315C122.942 20.9173 128.438 32.1458 129.433 44.188C130.545 57.6328 126.387 70.9834 117.833 81.4279L89.0678 116.541C87.9777 117.873 86.6042 118.947 85.0473 119.684C83.4903 120.421 81.789 120.803 80.0658 120.803C78.3426 120.803 76.641 120.421 75.084 119.684C73.527 118.947 72.1539 117.873 71.0634 116.541L42.3048 81.4279C33.7485 70.9841 29.5874 57.6335 30.698 44.188Z" fill="#F2211C"/>
<path d="M100.995 29.7362H90.6302L91.6457 25.7092L96.0073 24.2356C96.935 23.9228 97.4871 22.9448 97.2195 22.0098C97.1513 21.7746 97.036 21.5556 96.88 21.366C96.724 21.1764 96.5307 21.0202 96.3122 20.9069C96.0936 20.7936 95.8539 20.7255 95.6083 20.7068C95.3622 20.6881 95.115 20.7192 94.8814 20.7981L89.5318 22.6049C89.2439 22.7024 88.9851 22.8699 88.7789 23.0923C88.5728 23.3146 88.4266 23.5846 88.3528 23.8776L86.8764 29.7362H71.9592C70.9791 29.7362 70.1377 30.4838 70.0891 31.456C70.077 31.7004 70.1155 31.9445 70.2014 32.1737C70.2873 32.4029 70.4195 32.6124 70.5895 32.7894C70.7594 32.9665 70.964 33.1075 71.1909 33.2038C71.4173 33.3001 71.6611 33.3498 71.9079 33.3498H72.2207L72.3345 34.3278C72.3613 34.5562 72.472 34.7668 72.645 34.9196C72.8183 35.0724 73.0418 35.1568 73.2735 35.1566C77.7127 35.1566 81.6579 36.3875 84.6694 38.716C86.3447 39.9965 87.7028 41.6402 88.6395 43.5211C89.164 44.5791 89.551 45.6989 89.7914 46.8536C89.8393 47.0783 89.9738 47.2763 90.166 47.4047C91.7143 48.4469 92.8564 49.9837 93.4028 51.7592C93.9492 53.5346 93.8663 55.4421 93.1684 57.1649C93.0874 57.364 93.0814 57.5857 93.1515 57.7893C93.5546 58.9358 93.7611 60.141 93.7615 61.3553C93.7615 63.8782 92.8964 66.2822 91.3258 68.1254C90.4354 69.1771 89.3151 70.0142 88.0502 70.5723C87.8313 70.6679 87.659 70.8452 87.5709 71.0658C87.098 72.2876 86.4306 73.4262 85.5937 74.4379C85.5591 74.4789 85.5365 74.529 85.5293 74.5821C85.5221 74.6355 85.5304 74.6893 85.553 74.7383C85.5757 74.7868 85.6122 74.8282 85.6574 74.8572C85.703 74.8862 85.7558 74.9016 85.81 74.902H91.4113C92.7826 74.8963 94.1022 74.3818 95.1101 73.4593C96.1181 72.5367 96.7413 71.2732 96.8574 69.9174L100.75 33.3498H101.046C101.293 33.3501 101.537 33.3007 101.764 33.2045C101.991 33.1083 102.196 32.9674 102.366 32.7903C102.536 32.6131 102.669 32.4036 102.755 32.1742C102.841 31.9449 102.879 31.7005 102.867 31.456C102.82 30.4838 101.975 29.7362 100.995 29.7362Z" fill="white"/>
<path d="M56.0068 40.8826H5.84687C2.61773 40.8826 0 43.4974 0 46.7229C0 49.9484 2.61773 52.5633 5.84687 52.5633H56.0068C59.2359 52.5633 61.8536 49.9484 61.8536 46.7229C61.8536 43.4974 59.2359 40.8826 56.0068 40.8826Z" fill="#F2211C"/>
<path d="M56.0066 60.2479H30.465C27.2359 60.2479 24.6182 62.8627 24.6182 66.0883C24.6182 69.3138 27.2359 71.9286 30.465 71.9286H56.0066C59.2357 71.9286 61.8534 69.3138 61.8534 66.0883C61.8534 62.8627 59.2357 60.2479 56.0066 60.2479Z" fill="#F2211C"/>
<path d="M16.617 60.2479H14.7707C11.5416 60.2479 8.92383 62.8627 8.92383 66.0883C8.92383 69.3138 11.5416 71.9286 14.7707 71.9286H16.617C19.8462 71.9286 22.4639 69.3138 22.4639 66.0883C22.4639 62.8627 19.8462 60.2479 16.617 60.2479Z" fill="#F2211C"/>
<path d="M59.8972 55.0285C60.2559 55.027 60.6113 55.0959 60.9429 55.2314C61.2748 55.3673 61.5759 55.5667 61.8295 55.8189L63.5922 57.5703C63.6344 57.6124 63.6845 57.6456 63.7399 57.6681C63.7949 57.6911 63.8541 57.7028 63.914 57.7028C63.9736 57.7028 64.0327 57.6911 64.0881 57.6681C64.1431 57.6456 64.1932 57.6124 64.2354 57.5703L65.9951 55.8189C66.2484 55.5667 66.5498 55.3673 66.8814 55.2314C67.213 55.0959 67.5683 55.027 67.9271 55.0285H90.2701C90.3896 55.0296 90.5079 55.0074 90.6187 54.9634C90.7294 54.919 90.8304 54.8535 90.9156 54.7703C91.0011 54.6871 91.0689 54.5885 91.1157 54.4793C91.1624 54.3702 91.1873 54.2528 91.1884 54.1342V54.1252C91.1873 53.0844 90.8248 52.0757 90.162 51.2695C89.4995 50.4632 88.5775 49.9084 87.5514 49.6988C87.458 46.3463 86.0739 43.5403 83.5154 41.5687C81.149 39.7349 77.9872 38.7684 74.3671 38.7684H66.1836C58.4299 38.7684 53.1779 43.1462 52.9993 49.6988C51.9732 49.9084 51.0512 50.4632 50.3887 51.2695C49.7259 52.0757 49.3634 53.0844 49.3623 54.1252C49.3623 54.3649 49.458 54.5945 49.6287 54.7639C49.799 54.9333 50.0304 55.0285 50.2716 55.0285H59.8972ZM68.6773 58.6419C68.5578 58.6419 68.4395 58.6652 68.3291 58.7104C68.2187 58.7559 68.1185 58.8222 68.0341 58.9061L65.5177 61.4072C65.0912 61.8307 64.5131 62.0685 63.9106 62.0685C63.3077 62.0685 62.7297 61.8307 62.3035 61.4072L59.7872 58.9061C59.7024 58.8222 59.6022 58.7559 59.4918 58.7104C59.3814 58.6652 59.263 58.6419 59.1436 58.6419H51.2558C50.8289 58.64 50.4147 58.7883 50.0869 59.0604C49.7591 59.3326 49.5387 59.7112 49.4644 60.129C49.3962 60.5332 49.3619 60.942 49.3623 61.3519C49.3623 64.806 51.7637 67.6199 54.7338 67.6753C55.01 69.3826 55.6784 70.925 56.6841 72.1321C58.1718 73.9174 60.3347 74.902 62.7738 74.902H77.7769C80.216 74.902 82.3789 73.9174 83.8666 72.1299C84.8723 70.9228 85.5407 69.3803 85.8169 67.673C88.787 67.62 91.1884 64.806 91.1884 61.3496C91.1888 60.9397 91.1545 60.531 91.0863 60.1267C91.0117 59.7093 90.7909 59.331 90.4634 59.0597C90.1356 58.7879 89.7218 58.64 89.2949 58.6419H68.6773Z" fill="white"/>
<path d="M62.4694 22.1318H21.2336C18.0045 22.1318 15.3867 24.7466 15.3867 27.9722C15.3867 31.1977 18.0045 33.8125 21.2336 33.8125H62.4694C65.6986 33.8125 68.3163 31.1977 68.3163 27.9722C68.3163 24.7466 65.6986 22.1318 62.4694 22.1318Z" fill="#F2211C"/>
<path d="M57.5622 133.805V156.203H53.0646V141.634L47.0575 156.203H43.6522L37.6127 141.634V156.203H33.1152V133.805H38.2231L45.3546 150.459L52.4866 133.805H57.5622ZM78.5529 146.929C78.5529 147.571 78.5103 148.148 78.4244 148.662H65.4138C65.5208 149.945 65.9708 150.951 66.7632 151.678C67.5556 152.406 68.5301 152.769 69.6865 152.769C71.3569 152.769 72.5457 152.053 73.2523 150.619H78.1033C77.5894 152.331 76.604 153.743 75.1476 154.855C73.6912 155.946 71.9033 156.491 69.783 156.491C68.0696 156.491 66.5277 156.117 65.1568 155.368C63.8079 154.598 62.7475 153.518 61.9766 152.127C61.2271 150.737 60.8521 149.133 60.8521 147.314C60.8521 145.474 61.2271 143.859 61.9766 142.468C62.726 141.078 63.7754 140.008 65.1248 139.26C66.4742 138.511 68.0266 138.137 69.783 138.137C71.4748 138.137 72.9847 138.5 74.3126 139.228C75.6616 139.955 76.7005 140.993 77.4285 142.34C78.1783 143.667 78.5529 145.196 78.5529 146.929ZM73.8947 145.645C73.8736 144.49 73.4557 143.57 72.6418 142.886C71.8283 142.18 70.8324 141.827 69.6545 141.827C68.5406 141.827 67.5986 142.169 66.8272 142.854C66.0778 143.517 65.6173 144.448 65.4462 145.645H73.8947ZM80.6792 147.25C80.6792 145.453 81.0327 143.859 81.7392 142.468C82.4676 141.078 83.442 140.008 84.6629 139.26C85.9048 138.511 87.2862 138.137 88.8067 138.137C90.1346 138.137 91.291 138.404 92.2763 138.939C93.2828 139.474 94.0858 140.147 94.6857 140.96V138.425H99.2153V156.203H94.6857V153.603C94.1073 154.438 93.3043 155.133 92.2763 155.689C91.2695 156.224 90.1025 156.491 88.7746 156.491C87.2757 156.491 85.9048 156.106 84.6629 155.336C83.442 154.566 82.4676 153.486 81.7392 152.095C81.0327 150.683 80.6792 149.068 80.6792 147.25ZM94.6857 147.314C94.6857 146.223 94.4713 145.293 94.0432 144.522C93.6148 143.731 93.0364 143.132 92.3084 142.725C91.5804 142.298 90.7985 142.083 89.9631 142.083C89.1281 142.083 88.3571 142.287 87.6502 142.693C86.9437 143.1 86.3653 143.699 85.9154 144.49C85.4873 145.26 85.2729 146.18 85.2729 147.25C85.2729 148.32 85.4873 149.261 85.9154 150.074C86.3653 150.865 86.9437 151.475 87.6502 151.903C88.3786 152.331 89.1496 152.545 89.9631 152.545C90.7985 152.545 91.5804 152.341 92.3084 151.935C93.0364 151.507 93.6148 150.908 94.0432 150.138C94.4713 149.346 94.6857 148.405 94.6857 147.314ZM108.105 132.457V156.203H103.608V132.457H108.105ZM129.575 138.425L118.556 164.61H113.769L117.624 155.753L110.493 138.425H115.536L120.13 150.844L124.788 138.425H129.575Z" fill="#F2211C"/>
</svg>
